<?xml version="1.0" standalone="no"?>
<!DOCTYPE svg PUBLIC "-//W3C//DTD SVG 20010904//EN"
 "http://www.w3.org/TR/2001/REC-SVG-20010904/DTD/svg10.dtd">
<svg version="1.0" xmlns="http://www.w3.org/2000/svg"
 width="200.000000pt" height="173.000000pt" viewBox="0 0 200.000000 173.000000"
 preserveAspectRatio="xMidYMid meet">
<metadata>
Created by potrace 1.16, written by Peter Selinger 2001-2019
</metadata>
<g transform="translate(0.000000,173.000000) scale(0.100000,-0.100000)"
fill="#000000" stroke="none">
<path d="M1170 1528 c0 -32 -3 -39 -10 -28 -5 8 -10 25 -10 38 0 12 -5 22 -11
22 -7 0 -8 -14 -4 -42 8 -47 8 -47 6 -67 -1 -10 -6 -10 -27 4 -41 27 -42 7 -2
-31 39 -36 87 -45 105 -21 10 12 43 109 43 124 0 4 -9 -3 -21 -17 l-20 -25 7
38 c8 46 -10 50 -22 5 l-8 -33 -3 38 c-6 51 -23 47 -23 -5z"/>
<path d="M1639 1363 c-6 -15 -13 -51 -16 -80 -10 -96 34 -124 137 -88 23 8 53
15 66 15 13 0 24 5 24 10 0 6 -15 8 -40 4 -71 -12 -44 18 38 41 12 3 22 11 22
16 0 12 -11 11 -60 -6 -50 -18 -51 -1 0 26 18 10 38 23 44 29 19 19 -25 11
-61 -11 -46 -29 -55 -15 -15 22 30 29 41 49 25 49 -5 0 -24 -14 -43 -31 -80
-70 -106 -74 -94 -14 8 42 -12 56 -27 18z"/>
<path d="M470 1279 c0 -7 10 -23 22 -36 31 -33 18 -37 -26 -7 -24 17 -41 23
-48 16 -6 -6 4 -17 28 -31 47 -28 40 -34 -19 -16 -26 8 -49 10 -52 5 -7 -11
19 -25 62 -35 59 -12 51 -28 -11 -21 -45 6 -56 5 -56 -7 0 -10 17 -16 54 -21
30 -3 67 -11 81 -16 l27 -10 -32 -30 c-39 -37 -33 -49 14 -26 19 9 39 16 44
16 18 0 62 61 62 85 0 38 -10 55 -44 72 -17 9 -48 29 -68 45 -22 17 -38 24
-38 17z"/>
<path d="M1340 1237 c-14 -7 -34 -27 -45 -44 -24 -39 -39 -41 -60 -10 -18 29
-85 51 -126 42 -66 -15 -109 -97 -93 -179 7 -41 83 -126 112 -126 23 -1 87
-41 133 -85 l38 -36 15 28 c17 33 64 78 124 118 57 38 92 98 92 159 0 106
-102 177 -190 133z m-83 -103 c4 -10 0 -20 -10 -26 -23 -12 -21 -33 5 -58 26
-24 56 -26 86 -4 22 15 31 64 11 64 -6 0 -9 8 -7 18 2 9 10 17 18 17 11 0 15
-13 15 -55 0 -51 -2 -56 -32 -75 -18 -11 -30 -26 -28 -33 6 -16 -13 -64 -28
-74 -38 -24 -97 6 -97 49 0 12 -4 23 -8 23 -5 0 -16 6 -26 13 -15 11 -17 17
-7 35 25 47 64 20 71 -50 5 -48 7 -53 30 -53 22 0 25 5 28 37 2 29 -1 38 -17
43 -33 10 -54 52 -46 93 4 20 9 40 11 44 8 13 24 9 31 -8z"/>
<path d="M800 1170 c0 -9 5 -21 12 -28 6 -6 8 -15 4 -19 -4 -4 -18 6 -31 22
-13 17 -27 27 -31 22 -4 -4 2 -17 14 -30 33 -35 26 -41 -15 -13 -49 33 -57 23
-13 -16 34 -29 34 -29 8 -24 -14 3 -34 9 -44 13 -37 14 -1 -19 44 -40 50 -24
62 -50 25 -55 -13 -2 -23 -9 -23 -17 0 -13 47 -7 103 14 33 13 45 63 23 94
-36 52 -75 91 -76 77z"/>
<path d="M1537 998 c-4 -13 -112 -153 -233 -305 l-25 -32 -47 51 c-26 29 -66
72 -90 98 l-42 45 74 -151 74 -151 -11 -124 -12 -124 -140 -6 c-77 -3 -149
-10 -160 -16 -11 -6 -31 -11 -45 -12 -75 -2 -162 -13 -215 -27 -33 -9 -85 -22
-115 -29 -71 -15 -271 -77 -267 -82 2 -2 62 10 133 25 353 79 591 106 859 99
180 -5 378 -30 446 -56 14 -5 51 -12 82 -16 94 -12 66 10 -50 40 -108 28 -125
31 -307 59 -54 9 -100 17 -102 18 -1 2 -4 62 -5 135 l-2 132 108 216 c59 119
105 218 103 221 -3 3 -8 -1 -11 -8z"/>
<path d="M838 696 c-31 -6 -62 -16 -68 -22 -23 -23 -23 -154 -2 -244 11 -47
23 -100 27 -118 5 -23 12 -32 26 -32 24 0 25 24 3 127 -10 49 -12 79 -6 85 15
15 27 -14 47 -109 15 -68 21 -83 36 -83 24 0 24 25 0 121 -20 79 -33 209 -21
209 4 0 18 -11 31 -25 13 -13 29 -25 35 -25 7 0 61 -47 120 -104 60 -57 110
-103 112 -101 4 3 -78 86 -156 158 -29 26 -52 53 -52 59 0 6 -20 28 -45 50
-25 22 -44 43 -41 46 3 3 11 0 19 -6 15 -13 43 1 33 17 -8 13 -21 12 -98 -3z"/>
<path d="M416 594 c-23 -23 -20 -53 7 -65 29 -13 26 -50 -6 -64 -36 -16 -67
-73 -67 -121 0 -55 43 -109 94 -118 41 -8 113 9 141 32 26 22 55 67 55 87 0
19 9 19 30 0 14 -13 22 -14 44 -4 33 15 36 44 4 35 -17 -4 -31 3 -55 26 -29
28 -36 30 -80 25 -26 -4 -58 -9 -70 -13 -19 -5 -23 -2 -23 15 0 16 10 23 45
32 26 7 44 16 42 23 -4 12 -13 12 -62 1 -24 -5 -33 -2 -44 16 -11 19 -11 23 3
31 9 5 16 19 16 31 0 44 -44 62 -74 31z m34 -172 c0 -10 6 -26 13 -35 11 -15
17 -15 81 -1 80 19 94 10 67 -39 -27 -51 -56 -79 -92 -86 -44 -9 -100 3 -116
25 -20 27 -16 92 8 125 23 33 39 37 39 11z"/>
<path d="M179 563 c-5 -16 -14 -39 -19 -53 -15 -38 -14 -67 5 -165 10 -49 22
-114 27 -142 6 -34 14 -53 23 -53 25 0 27 20 9 120 -17 95 -15 125 5 104 10
-10 41 -150 41 -184 0 -16 5 -21 23 -18 20 3 22 8 19 48 -2 25 -12 87 -23 138
-18 82 -19 136 -3 164 2 3 26 -5 54 -19 47 -23 70 -24 70 -2 0 14 -164 89
-194 89 -20 0 -29 -7 -37 -27z"/>
</g>
</svg>
